<svg width="96" height="96" viewBox="0 0 96 96" fill="none" xmlns="http://www.w3.org/2000/svg" role="img" aria-label="Success HR Solutions">
  <defs>
    <linearGradient id="markBlue" x1="18" y1="14" x2="78" y2="78" gradientUnits="userSpaceOnUse">
      <stop offset="0" stop-color="#5BD3E8"/>
      <stop offset="1" stop-color="#064F9E"/>
    </linearGradient>
    <linearGradient id="markOrange" x1="26" y1="35" x2="58" y2="82" gradientUnits="userSpaceOnUse">
      <stop offset="0" stop-color="#F8C04E"/>
      <stop offset="1" stop-color="#E8832D"/>
    </linearGradient>
  </defs>
  <rect width="96" height="96" rx="22" fill="#FFFFFF"/>
  <path d="M56 17C45 21 41 29 37 39C47 36 56 31 66 18C75 36 84 48 94 53C76 56 60 49 52 36C45 47 41 62 43 81C31 61 31 45 43 30C47 25 51 20 56 17Z" fill="url(#markBlue)"/>
  <circle cx="33" cy="33" r="8" fill="#0B83C4"/>
  <path d="M30 57C40 54 45 48 49 39C41 42 34 46 28 55C22 69 13 78 2 85C20 83 32 74 39 61C46 68 56 72 70 73C53 80 37 76 30 57Z" fill="url(#markOrange)"/>
  <circle cx="28" cy="47" r="7" fill="#F6BE3D"/>
  <path d="M55 73C69 70 82 64 94 54" stroke="#0B65AC" stroke-width="4" stroke-linecap="round"/>
</svg>
